<?xml version="1.0" encoding="UTF-8"?>
<svg id="Layer_1" xmlns="http://www.w3.org/2000/svg" version="1.1" viewBox="0 0 502 502">
  <!-- Generator: Adobe Illustrator 30.1.0, SVG Export Plug-In . SVG Version: 2.1.1 Build 136)  -->
  <defs>
    <style>
      .st0 {
        fill: #049669;
      }

      .st0, .st1 {
        fill-rule: evenodd;
      }

      .st1 {
        fill: #6bc8c4;
        isolation: isolate;
        opacity: .7;
      }
    </style>
  </defs>
  <path class="st0" d="M484.73,14.92c20.49.28,16.69,17.93,16.47,37.28,0,33.94,4.57,78.82-8.24,100.15-14.23,24.08-42.07,37.07-64.6,52.89-39.59,27.31-79.2,54.89-118.79,81.94-19.34,13.44-39.02,27.01-58.53,40.32-36.94-25.87-74.57-51.74-111.85-77.6,30.34-20.95,60.96-41.91,91.04-62.86l152.61-104.48c33.17-23.34,64.87-48.27,101.88-67.63Z"/>
  <path class="st0" d="M110.75,405.53c4.74,3.2,4.74,10.58,0,13.63L11.97,485.76C6.81,489.24,0,485.43,0,478.94v-133.2c0-6.43,6.81-10.3,11.97-6.82l98.78,66.6Z"/>
  <path class="st1" d="M13.44,14.92c17.7,4.44,27.59,13.99,40.43,23.04l65.64,45.21,243.43,167.8h-.87c-36.6,25.65-73.9,51.51-110.85,76.94l-172.58-119.11c-26.28-18.5-57.71-32.64-72.6-62.6C-3.42,127.14,1.14,83.15.83,55.35c0-10.62-1.82-25.6,1.74-33.47,2.13-4.7,5.93-4.9,10.87-6.96Z"/>
  <path class="st1" d="M393.86,418.6c-3.49-2.26-4.5-6.92-2.24-10.42.58-.9,1.34-1.66,2.24-2.24l95.86-61.93c3.5-2.25,8.17-1.24,10.42,2.26.8,1.24,1.21,2.69,1.2,4.16v123.76c0,5.97-6.61,9.57-11.62,6.67l-95.86-62.28Z"/>
</svg>