<?xml version="1.0" encoding="UTF-8"?>
<svg id="Layer_1" xmlns="http://www.w3.org/2000/svg" version="1.1" viewBox="0 0 1682 367">
  <!-- Generator: Adobe Illustrator 30.1.0, SVG Export Plug-In . SVG Version: 2.1.1 Build 136)  -->
  <defs>
    <style>
      .st0, .st1 {
        fill-rule: evenodd;
      }

      .st0, .st1, .st2 {
        fill: #fff;
      }

      .st1 {
        opacity: .7;
      }

      .st1, .st2 {
        isolation: isolate;
      }

      .st2 {
        font-family: Arial-Black, 'Arial Black';
        font-size: 502.26px;
        font-weight: 800;
      }
    </style>
  </defs>
  <path class="st0" d="M372.48,4.18c15.75.22,12.83,13.78,12.66,28.65,0,26.08,3.51,60.57-6.33,76.96-10.94,18.51-32.33,28.48-49.64,40.64-30.42,20.99-60.86,42.18-91.28,62.96-14.86,10.33-29.98,20.76-44.97,30.98-28.38-19.88-57.3-39.76-85.95-59.63,23.32-16.1,46.84-32.21,69.96-48.31l117.27-80.29c25.49-17.93,49.85-37.1,78.29-51.97Z"/>
  <path class="st0" d="M85.1,304.33c3.64,2.46,3.64,8.13,0,10.48l-75.9,51.18C5.23,368.66,0,365.73,0,360.75v-102.35c0-4.94,5.23-7.91,9.2-5.24l75.9,51.18Z"/>
  <path class="st1" d="M10.33,4.18c13.6,3.41,21.2,10.75,31.07,17.7l50.44,34.74,187.06,128.94h-.67c-28.13,19.71-56.79,39.58-85.18,59.12L60.43,153.16c-20.19-14.22-44.35-25.08-55.78-48.1C-2.63,90.42.87,56.61.64,35.25.64,27.09-.76,15.58,1.98,9.53c1.63-3.62,4.55-3.76,8.35-5.34Z"/>
  <path class="st1" d="M302.65,314.38c-2.69-1.74-3.46-5.32-1.72-8,.45-.69,1.03-1.28,1.72-1.72l73.66-47.59c2.69-1.73,6.28-.95,8.01,1.74.61.95.93,2.06.92,3.2v95.1c0,4.59-5.08,7.35-8.93,5.13l-73.66-47.86Z"/>
  <text class="st2" transform="translate(422.47 363.02)"><tspan x="0" y="0">AKX</tspan></text>
  <text/>
</svg>